<?xml version="1.0" standalone="no"?>
<!DOCTYPE svg PUBLIC "-//W3C//DTD SVG 20010904//EN"
 "http://www.w3.org/TR/2001/REC-SVG-20010904/DTD/svg10.dtd">
<svg version="1.0" xmlns="http://www.w3.org/2000/svg"
 width="281.000000pt" height="281.000000pt" viewBox="0 0 281.000000 281.000000"
 preserveAspectRatio="xMidYMid meet">
<metadata>
Created by potrace 1.14, written by Peter Selinger 2001-2017
</metadata>
<g transform="translate(0.000000,281.000000) scale(0.100000,-0.100000)"
fill="#000000" stroke="none">
<path d="M1255 2803 c-25 -3 -76 -13 -200 -37 -48 -10 -186 -61 -261 -97 -276
-133 -525 -382 -653 -652 -45 -95 -94 -238 -110 -317 -6 -30 -13 -68 -17 -85
-12 -61 -12 -330 1 -410 52 -323 177 -569 399 -790 100 -99 248 -215 274 -215
6 0 12 -4 14 -8 9 -24 226 -114 353 -147 131 -34 189 -40 365 -39 291 1 549
82 790 248 72 50 270 236 304 286 9 14 39 59 67 100 93 138 178 346 203 495
18 106 21 144 21 265 0 202 -13 284 -72 460 -34 102 -91 219 -152 312 -62 96
-83 121 -196 233 -199 200 -434 323 -725 381 -72 14 -342 26 -405 17z"/>
</g>
</svg>
